<?xml version="1.0" encoding="UTF-8"?>
<svg version="1.1" xmlns="http://www.w3.org/2000/svg" width="499" height="216">
<path d="M0 0 C25.08 0 50.16 0 76 0 C76 54.12 76 108.24 76 164 C50.92 164 25.84 164 0 164 C0 109.88 0 55.76 0 0 Z M13 30 C13 36.93 13 43.86 13 51 C15.97 51 18.94 51 22 51 C22 49.02 22 47.04 22 45 C35.53 45 49.06 45 63 45 C63 42.03 63 39.06 63 36 C49.47 36 35.94 36 22 36 C22 34.02 22 32.04 22 30 C19.03 30 16.06 30 13 30 Z M28.8125 65.4375 C27 67 27 67 24.25 67.25 C23.5075 67.1675 22.765 67.085 22 67 C22 66.01 22 65.02 22 64 C23.65 63.67 25.3 63.34 27 63 C27 60.03 27 57.06 27 54 C22.02666392 53.70745082 18.9563029 53.83495768 15 57 C12.42538481 61.22200883 12.44967865 65.18468821 13 70 C14.30595239 73.23051382 15.21496808 74.52898085 18.1875 76.3125 C23.15992356 77.52798132 26.86131705 78.06765747 31.48046875 75.76171875 C36.36196079 72.81553109 36.36196079 72.81553109 39 68 C40.75 67 40.75 67 43 66 C43.804375 65.46375 44.60875 64.9275 45.4375 64.375 C48.24211138 62.87008658 49.87003753 62.7317175 53 63 C53 64.32 53 65.64 53 67 C50.36 67.33 47.72 67.66 45 68 C45 70.97 45 73.94 45 77 C50.07081218 77.36076925 53.87602359 77.5619882 58.5 75.25 C62.35255801 71.78269779 62.89860608 70.27756335 63.3125 65.0625 C63.1698456 61.22509663 62.71872526 58.88349649 60 56 C46.82084402 49.7024457 37.85996339 55.3560408 28.8125 65.4375 Z M14.03125 85.9453125 C12.07604804 89.84090429 12.27438862 93.77281442 13 98 C14.89334737 101.61984803 17.06486269 103.68828756 21 105 C23.43122766 105.13205275 25.83305699 105.21202549 28.265625 105.23828125 C29.33305939 105.25038887 29.33305939 105.25038887 30.42205811 105.26274109 C31.92832011 105.27656048 33.43461315 105.28729222 34.94091797 105.29516602 C36.47323859 105.30666895 38.00551968 105.32709435 39.53759766 105.35668945 C41.7597151 105.39959765 43.98064345 105.41556701 46.203125 105.42578125 C46.87941956 105.44328934 47.55571411 105.46079742 48.25250244 105.47883606 C53.65121035 105.45455483 56.6338218 103.93105652 61 101 C63.44137773 98.02788798 63.36870386 94.74237098 63.2421875 90.9609375 C62.86618632 87.91654085 62.0336431 86.29604866 60 84 C53.2808077 80.09977918 46.17502264 80.30241442 38.5625 80.0625 C37.27794922 79.99482422 35.99339844 79.92714844 34.66992188 79.85742188 C26.27580275 79.55902197 20.26797774 79.78283152 14.03125 85.9453125 Z M15 113 C11.88196601 118.49071198 11.88196601 118.49071198 13 132 C29.5 132 46 132 63 132 C63 129.03 63 126.06 63 123 C56.4 123 49.8 123 43 123 C42.67 120.03 42.34 117.06 42 114 C39.75410675 111.00547566 38.55130633 110.18376878 35 109 C24.06113103 107.93912228 24.06113103 107.93912228 15 113 Z " fill="#E6E6DD" transform="translate(215,29)"/>
<path d="M0 0 C1 2 1 2 0.045578 4.89741516 C-0.45620936 6.1513746 -0.96667998 7.40187838 -1.48364258 8.6496582 C-1.75836332 9.33017683 -2.03308407 10.01069546 -2.31612968 10.71183586 C-3.23101961 12.97359243 -4.15661498 15.23081354 -5.08203125 17.48828125 C-5.72645897 19.07660258 -6.37006828 20.66525619 -7.01289368 22.25422668 C-8.34675585 25.54928726 -9.684273 28.84282813 -11.0244751 32.13531494 C-13.70634108 38.73040132 -16.34819662 45.34138581 -18.98909378 51.95295715 C-20.39933226 55.48226701 -21.8127019 59.01032284 -23.22558594 62.53857422 C-35.55282559 93.33192295 -47.82960234 124.14424725 -60 155 C-64.12000386 155 -65.46624941 153.35474168 -68.6875 150.8125 C-69.53211792 150.14951904 -69.53211792 150.14951904 -70.39379883 149.47314453 C-76.40660664 144.73131678 -82.33902727 139.88703944 -88.26953125 135.04296875 C-92.81879035 131.32730155 -97.40647431 127.66071075 -102 124 C-103.66692314 122.66698733 -105.33358503 121.33364789 -107 120 C-107.82242188 119.34257812 -108.64484375 118.68515625 -109.4921875 118.0078125 C-111.18692426 116.65096718 -112.87958222 115.29152192 -114.5703125 113.9296875 C-119.64133465 109.85115898 -124.76228691 105.86244764 -130 102 C-128.73486666 98.20459997 -127.29444127 97.50616294 -124.0625 95.1875 C-122.96743919 94.38981722 -121.87377941 93.59020887 -120.78125 92.7890625 C-120.17925781 92.34852539 -119.57726562 91.90798828 -118.95703125 91.45410156 C-115.27707066 88.71983943 -111.67452448 85.88551218 -108.0625 83.0625 C-106.50797058 81.85005771 -104.95328475 80.63781593 -103.3984375 79.42578125 C-102.65045898 78.8426416 -101.90248047 78.25950195 -101.13183594 77.65869141 C-96.10631554 73.74854647 -91.05130689 69.87673362 -86 66 C-83.83289153 64.33390747 -81.66642661 62.66697902 -79.5 61 C-76.30981395 58.54527885 -73.11903483 56.09135583 -69.92578125 53.640625 C-65.18648439 50.00141587 -60.45229956 46.35664078 -55.7421875 42.6796875 C-47.80715929 36.48584495 -39.83930143 30.34967066 -31.76733398 24.33520508 C-26.7941755 20.62039792 -21.90454557 16.80951127 -17.03759766 12.95703125 C-11.43665862 8.53207854 -5.73284245 4.25238313 0 0 Z " fill="#E6E6DC" transform="translate(206,36)"/>
<path d="M0 0 C23.43 0 46.86 0 71 0 C71 10.56 71 21.12 71 32 C64.73 32 58.46 32 52 32 C52 74.57 52 117.14 52 161 C41.11 161 30.22 161 19 161 C18.67 118.76 18.34 76.52 18 33 C12.06 32.67 6.12 32.34 0 32 C0 21.44 0 10.88 0 0 Z " fill="#E6E6DC" transform="translate(344,29)"/>
<path d="M0 0 C0 0.99 0 1.98 0 3 C-1.94921875 4.69140625 -1.94921875 4.69140625 -4.6875 6.5625 C-8.90801685 9.51955002 -13.04998218 12.53231596 -17.125 15.6875 C-18.22643909 16.53922212 -19.32800592 17.39077906 -20.4296875 18.2421875 C-21.00428711 18.6865918 -21.57888672 19.13099609 -22.17089844 19.58886719 C-25.52220754 22.17436727 -28.88666351 24.74267797 -32.25 27.3125 C-32.96623535 27.85994873 -33.6824707 28.40739746 -34.42041016 28.97143555 C-35.8837413 30.08990625 -37.34712047 31.20831411 -38.81054688 32.32666016 C-42.37428992 35.05033264 -45.93710631 37.77521663 -49.5 40.5 C-50.91666204 41.58333938 -52.33332872 42.66667271 -53.75 43.75 C-54.45125 44.28625 -55.1525 44.8225 -55.875 45.375 C-63.66666667 51.33333333 -71.45833333 57.29166667 -79.25 63.25 C-80.3013916 64.05401245 -80.3013916 64.05401245 -81.37402344 64.87426758 C-82.79392684 65.96006647 -84.21384878 67.04584112 -85.63378906 68.1315918 C-89.12608433 70.80200585 -92.61808046 73.47280895 -96.109375 76.14453125 C-104.17087136 82.31284793 -112.23886979 88.47257161 -120.3125 94.625 C-121.21452148 95.31247314 -122.11654297 95.99994629 -123.04589844 96.70825195 C-123.89313477 97.35366943 -124.74037109 97.99908691 -125.61328125 98.6640625 C-126.36391846 99.23592285 -127.11455566 99.8077832 -127.88793945 100.39697266 C-129.91962169 101.93899388 -131.95789586 103.47181625 -134 105 C-136.90017857 103.64958426 -139.30801461 102.11080498 -141.8125 100.125 C-142.59882813 99.50367188 -143.38515625 98.88234375 -144.1953125 98.2421875 C-145.12085938 97.50226563 -146.04640625 96.76234375 -147 96 C-147.54624023 95.56333008 -148.09248047 95.12666016 -148.65527344 94.67675781 C-151.14903716 92.68257031 -153.64189152 90.68725341 -156.13354492 88.69042969 C-166.98810112 79.99599089 -177.95848367 71.45538044 -189 63 C-188.67 62.01 -188.34 61.02 -188 60 C-185.19331365 58.86450883 -182.47986827 57.93222516 -179.58984375 57.05859375 C-178.70156891 56.77924988 -177.81329407 56.49990601 -176.89810181 56.21209717 C-174.9489725 55.60073917 -172.99806753 54.99502169 -171.04568481 54.39413452 C-167.88569201 53.42155458 -164.73035998 52.43503688 -161.57592773 51.44458008 C-158.21415337 50.38933032 -154.85207431 49.33514994 -151.48860168 48.2853241 C-139.98504656 44.6944697 -128.51304372 41.00779929 -117.04364014 37.30957031 C-112.35777267 35.79918217 -107.67069598 34.29256465 -102.9836731 32.7857666 C-93.24367274 29.65429219 -83.50499531 26.51872104 -73.7671051 23.38069153 C-22.30419951 6.79811367 -22.30419951 6.79811367 0 0 Z " fill="#E6E6DC" transform="translate(207,29)"/>
<path d="M0 0 C10.56 0 21.12 0 32 0 C32 53.13 32 106.26 32 161 C21.44 161 10.88 161 0 161 C0 107.87 0 54.74 0 0 Z " fill="#E5E5DC" transform="translate(305,29)"/>
<path d="M0 0 C25.08 0 50.16 0 76 0 C75.67 0.66 75.34 1.32 75 2 C50.91 2.33 26.82 2.66 2 3 C2 55.47 2 107.94 2 162 C25.76 162 49.52 162 74 162 C74.33 160.35 74.66 158.7 75 157 C75.33 157 75.66 157 76 157 C76 159.31 76 161.62 76 164 C50.92 164 25.84 164 0 164 C0 109.88 0 55.76 0 0 Z " fill="#EAEAE6" transform="translate(215,29)"/>
<path d="M0 0 C3.18864579 1.59432289 5.47342498 3.01863787 8.22265625 5.1875 C9.00833984 5.80367187 9.79402344 6.41984375 10.60351562 7.0546875 C11.41498047 7.69664062 12.22644531 8.33859375 13.0625 9 C14.67768725 10.27172056 16.29354501 11.5425901 17.91015625 12.8125 C18.97955444 13.65748047 18.97955444 13.65748047 20.07055664 14.51953125 C21.66635859 15.74399576 23.32637945 16.88425297 25 18 C23.61314777 21.1195572 21.99810509 23.25855799 19.59375 25.671875 C18.60181641 26.66767578 18.60181641 26.66767578 17.58984375 27.68359375 C16.90019531 28.36550781 16.21054688 29.04742187 15.5 29.75 C14.81035156 30.44738281 14.12070313 31.14476562 13.41015625 31.86328125 C12.74886719 32.52199219 12.08757812 33.18070313 11.40625 33.859375 C10.80103516 34.46233398 10.19582031 35.06529297 9.57226562 35.68652344 C8 37 8 37 6 37 C6 37.66 6 38.32 6 39 C4.02 40.32 2.04 41.64 0 43 C0 28.81 0 14.62 0 0 Z " fill="#E5E6DD" transform="translate(76,144)"/>
<path d="M0 0 C0.33 0 0.66 0 1 0 C1 39.27 1 78.54 1 119 C24.76 119 48.52 119 73 119 C73.33 117.35 73.66 115.7 74 114 C74.33 114 74.66 114 75 114 C75 116.31 75 118.62 75 121 C50.25 120.67 25.5 120.34 0 120 C0 80.4 0 40.8 0 0 Z " fill="#F3F4EC" transform="translate(216,72)"/>
<path d="M0 0 C2.04993487 -0.00218517 4.09933039 -0.02034261 6.14916992 -0.03930664 C7.43887695 -0.04124023 8.72858398 -0.04317383 10.05737305 -0.04516602 C11.24387451 -0.0492749 12.43037598 -0.05338379 13.65283203 -0.05761719 C16.6237793 0.18530273 16.6237793 0.18530273 19.6237793 2.18530273 C18.9637793 3.50530273 18.3037793 4.82530273 17.6237793 6.18530273 C13.38794359 6.20999595 9.15214587 6.22815944 4.91625977 6.24023438 C3.47484609 6.24526747 2.03343753 6.25209446 0.59204102 6.26074219 C-1.47812156 6.27285257 -3.54821671 6.27854121 -5.6184082 6.28295898 C-6.86477051 6.2881958 -8.11113281 6.29343262 -9.39526367 6.29882812 C-12.3762207 6.18530273 -12.3762207 6.18530273 -14.3762207 5.18530273 C-14.3762207 3.86530273 -14.3762207 2.54530273 -14.3762207 1.18530273 C-10.15985275 -0.92288124 -4.63803577 -0.00055552 0 0 Z " fill="#EAEBE4" transform="translate(250.376220703125,118.814697265625)"/>
<path d="M0 0 C0 0.99 0 1.98 0 3 C-2.89579242 3.83712183 -5.39259154 4.10137258 -8.40136719 4.02172852 C-9.6922525 3.99158409 -9.6922525 3.99158409 -11.00921631 3.96083069 C-11.92914368 3.93379562 -12.84907104 3.90676056 -13.796875 3.87890625 C-14.74564514 3.85529526 -15.69441528 3.83168427 -16.67193604 3.80735779 C-19.69811521 3.73087006 -22.72402884 3.64678153 -25.75 3.5625 C-27.80337248 3.50926442 -29.85675787 3.45652412 -31.91015625 3.40429688 C-36.94027188 3.27527502 -41.97016273 3.13943665 -47 3 C-47 2.67 -47 2.34 -47 2 C-31.49 1.34 -15.98 0.68 0 0 Z " fill="#ECECE4" transform="translate(278,160)"/>
<path d="M0 0 C0.90105469 0.01804688 1.80210937 0.03609375 2.73046875 0.0546875 C3.41753906 0.07789063 4.10460937 0.10109375 4.8125 0.125 C5.4725 1.775 6.1325 3.425 6.8125 5.125 C2.1925 5.125 -2.4275 5.125 -7.1875 5.125 C-7.5175 4.135 -7.8475 3.145 -8.1875 2.125 C-4.87379 -0.08414 -3.8428979 -0.09981553 0 0 Z " fill="#EAEBE5" transform="translate(243.1875,146.875)"/>
<path d="M0 0 C1.65 0.33 3.3 0.66 5 1 C5 1.66 5 2.32 5 3 C13.25 3.33 21.5 3.66 30 4 C30 4.33 30 4.66 30 5 C19.77 5 9.54 5 -1 5 C-0.67 3.35 -0.34 1.7 0 0 Z " fill="#F1F0EA" transform="translate(306,185)"/>
<path d="M0 0 C0.66 0.99 1.32 1.98 2 3 C-0.97 2.67 -3.94 2.34 -7 2 C-7 2.66 -7 3.32 -7 4 C-7.66 4.66 -8.32 5.32 -9 6 C-9.33 6.99 -9.66 7.98 -10 9 C-11.32 8.67 -12.64 8.34 -14 8 C-14 7.34 -14 6.68 -14 6 C-9.54211795 1.93837413 -6.34064444 -0.65032251 0 0 Z " fill="#F1F2EC" transform="translate(268,91)"/>
<path d="M0 0 C0 1.65 0 3.3 0 5 C0.66 5 1.32 5 2 5 C3.7143618 6.95927063 5.38405168 8.95880212 7 11 C6.67 11.66 6.34 12.32 6 13 C5.37351562 12.43410156 4.74703125 11.86820313 4.1015625 11.28515625 C3.28429687 10.55167969 2.46703125 9.81820312 1.625 9.0625 C0.40683594 7.96615234 0.40683594 7.96615234 -0.8359375 6.84765625 C-2.85924167 4.97010529 -2.85924167 4.97010529 -5 4 C-4.67 3.01 -4.34 2.02 -4 1 C-2 0 -2 0 0 0 Z " fill="#E9EBE7" transform="translate(81,134)"/>
<path d="M0 0 C2 1 2 1 2 1 Z M-2 1 C-1.34 1.33 -0.68 1.66 0 2 C-0.33 2.66 -0.66 3.32 -1 4 C-1.66 4 -2.32 4 -3 4 C-3 4.66 -3 5.32 -3 6 C-3.78375 6.45375 -4.5675 6.9075 -5.375 7.375 C-8.1235949 9.07651113 -8.87921032 10.04519084 -10 13 C-11.65 12.67 -13.3 12.34 -15 12 C-12.24881027 9.14784917 -9.39684775 6.65641299 -6.25 4.25 C-5.45078125 3.63640625 -4.6515625 3.0228125 -3.828125 2.390625 C-3.22484375 1.93171875 -2.6215625 1.4728125 -2 1 Z " fill="#EAEAE5" transform="translate(136,90)"/>
<path d="M0 0 C0.66 0 1.32 0 2 0 C0.13236819 5.72210596 -1.85289032 11.37661751 -4 17 C-4.99 16.67 -5.98 16.34 -7 16 C-6.38302681 14.51746733 -5.75616104 13.03904826 -5.125 11.5625 C-4.77695313 10.73878906 -4.42890625 9.91507813 -4.0703125 9.06640625 C-3 7 -3 7 -1 6 C-0.34227572 2.97065509 -0.34227572 2.97065509 0 0 Z " fill="#EDEDE6" transform="translate(201,46)"/>
<path d="M0 0 C0 0.66 0 1.32 0 2 C-3.79313929 4.79969805 -7.7497269 6.97606043 -12 9 C-10.30509374 3.91528123 -5.30390826 0 0 0 Z " fill="#EBE9E5" transform="translate(174,63)"/>
<path d="M0 0 C4.75 1.875 4.75 1.875 7 3 C7.825 2.505 8.65 2.01 9.5 1.5 C10.325 1.005 11.15 0.51 12 0 C12.66 0.33 13.32 0.66 14 1 C12.02 2.65 10.04 4.3 8 6 C4.63408134 4.55746343 2.48952921 2.66735273 0 0 Z " fill="#EDEEE7" transform="translate(65,128)"/>
<path d="M0 0 C2.31 0 4.62 0 7 0 C8 2 9 4 10 6 C6.40992874 4.66654496 3.20429093 3.1056769 0 1 C0 0.67 0 0.34 0 0 Z " fill="#EDEEE7" transform="translate(268,81)"/>
<path d="M0 0 C-3.69172595 3.53790403 -7.09390595 3.59115883 -12 4 C-11 2 -11 2 -9.00390625 1.11328125 C-7.79541016 0.71689453 -7.79541016 0.71689453 -6.5625 0.3125 C-5.75941406 0.04050781 -4.95632812 -0.23148438 -4.12890625 -0.51171875 C-2 -1 -2 -1 0 0 Z " fill="#EFEFE7" transform="translate(149,49)"/>
<path d="M0 0 C0.33 0.99 0.66 1.98 1 3 C-1.31 3.66 -3.62 4.32 -6 5 C-6 4.01 -6 3.02 -6 2 C-4.02 1.34 -2.04 0.68 0 0 Z " fill="#ECEBE7" transform="translate(72,72)"/>
<path d="" fill="#000000" transform="translate(0,0)"/>
<path d="" fill="#000000" transform="translate(0,0)"/>
<path d="" fill="#000000" transform="translate(0,0)"/>
<path d="" fill="#000000" transform="translate(0,0)"/>
<path d="" fill="#000000" transform="translate(0,0)"/>
<path d="" fill="#000000" transform="translate(0,0)"/>
<path d="" fill="#000000" transform="translate(0,0)"/>
<path d="" fill="#000000" transform="translate(0,0)"/>
<path d="" fill="#000000" transform="translate(0,0)"/>
<path d="" fill="#000000" transform="translate(0,0)"/>
<path d="" fill="#000000" transform="translate(0,0)"/>
<path d="" fill="#000000" transform="translate(0,0)"/>
<path d="" fill="#000000" transform="translate(0,0)"/>
<path d="" fill="#000000" transform="translate(0,0)"/>
<path d="" fill="#000000" transform="translate(0,0)"/>
<path d="" fill="#000000" transform="translate(0,0)"/>
<path d="" fill="#000000" transform="translate(0,0)"/>
<path d="" fill="#000000" transform="translate(0,0)"/>
<path d="" fill="#000000" transform="translate(0,0)"/>
<path d="" fill="#000000" transform="translate(0,0)"/>
<path d="" fill="#000000" transform="translate(0,0)"/>
<path d="" fill="#000000" transform="translate(0,0)"/>
<path d="" fill="#000000" transform="translate(0,0)"/>
<path d="" fill="#000000" transform="translate(0,0)"/>
<path d="" fill="#000000" transform="translate(0,0)"/>
<path d="" fill="#000000" transform="translate(0,0)"/>
<path d="" fill="#000000" transform="translate(0,0)"/>
<path d="" fill="#000000" transform="translate(0,0)"/>
<path d="" fill="#000000" transform="translate(0,0)"/>
<path d="" fill="#000000" transform="translate(0,0)"/>
<path d="" fill="#000000" transform="translate(0,0)"/>
<path d="" fill="#000000" transform="translate(0,0)"/>
<path d="" fill="#000000" transform="translate(0,0)"/>
<path d="" fill="#000000" transform="translate(0,0)"/>
<path d="" fill="#000000" transform="translate(0,0)"/>
<path d="" fill="#000000" transform="translate(0,0)"/>
<path d="" fill="#000000" transform="translate(0,0)"/>
<path d="" fill="#000000" transform="translate(0,0)"/>
<path d="" fill="#000000" transform="translate(0,0)"/>
<path d="" fill="#000000" transform="translate(0,0)"/>
<path d="" fill="#000000" transform="translate(0,0)"/>
<path d="" fill="#000000" transform="translate(0,0)"/>
<path d="" fill="#000000" transform="translate(0,0)"/>
<path d="" fill="#000000" transform="translate(0,0)"/>
<path d="" fill="#000000" transform="translate(0,0)"/>
<path d="" fill="#000000" transform="translate(0,0)"/>
<path d="" fill="#000000" transform="translate(0,0)"/>
<path d="" fill="#000000" transform="translate(0,0)"/>
<path d="" fill="#000000" transform="translate(0,0)"/>
<path d="" fill="#000000" transform="translate(0,0)"/>
<path d="" fill="#000000" transform="translate(0,0)"/>
<path d="" fill="#000000" transform="translate(0,0)"/>
<path d="" fill="#000000" transform="translate(0,0)"/>
<path d="" fill="#000000" transform="translate(0,0)"/>
</svg>
