<?xml version="1.0" encoding="UTF-8"?>
<svg id="Layer_1" data-name="Layer 1" xmlns="http://www.w3.org/2000/svg" xmlns:xlink="http://www.w3.org/1999/xlink" viewBox="0 0 1111.89 1783.73">
  <defs>
    <style>
      .cls-1 {
        fill: #1b1b1f;
      }

      .cls-2 {
        clip-path: url(#clippath-11);
      }

      .cls-3, .cls-4 {
        fill: #fff;
      }

      .cls-5 {
        fill: #fafafa;
      }

      .cls-4, .cls-6 {
        fill-rule: evenodd;
      }

      .cls-7 {
        clip-path: url(#clippath-2);
      }

      .cls-8 {
        fill: #09090a;
      }

      .cls-9 {
        clip-path: url(#clippath-6);
      }

      .cls-10 {
        clip-path: url(#clippath-7);
      }

      .cls-11 {
        clip-path: url(#clippath-1);
      }

      .cls-12 {
        clip-path: url(#clippath-4);
      }

      .cls-13 {
        clip-path: url(#clippath-12);
      }

      .cls-14, .cls-6 {
        fill: #877eff;
      }

      .cls-15 {
        clip-path: url(#clippath-9);
      }

      .cls-16 {
        clip-path: url(#clippath);
      }

      .cls-17 {
        stroke: rgba(0, 0, 0, .1);
        stroke-miterlimit: 4;
        stroke-width: .72px;
      }

      .cls-17, .cls-18, .cls-19 {
        fill: none;
      }

      .cls-18 {
        stroke: #fff;
        stroke-linecap: round;
        stroke-linejoin: round;
        stroke-width: 1.44px;
      }

      .cls-20 {
        clip-path: url(#clippath-3);
      }

      .cls-21 {
        clip-path: url(#clippath-8);
      }

      .cls-22 {
        fill: #efefef;
      }

      .cls-23 {
        clip-path: url(#clippath-5);
      }

      .cls-24 {
        fill: url(#linear-gradient-2);
      }

      .cls-24, .cls-25 {
        fill-opacity: .7;
      }

      .cls-26 {
        fill: rgba(255, 255, 255, .05);
      }

      .cls-27 {
        clip-path: url(#clippath-10);
      }

      .cls-25 {
        fill: url(#linear-gradient);
      }
    </style>
    <clipPath id="clippath">
      <rect class="cls-19" x="195.94" y="208.34" width="720" height="1024"/>
    </clipPath>
    <clipPath id="clippath-1">
      <rect class="cls-19" x="-180.09" y="383.16" width="1472.08" height="841.4" transform="translate(-340.77 1192.67) rotate(-78.77)"/>
    </clipPath>
    <clipPath id="clippath-2">
      <rect class="cls-19" x="506.18" y="820.39" width="256.73" height="508.43" rx="21.57" ry="21.57" transform="translate(-543.04 1487.79) rotate(-78.77)"/>
    </clipPath>
    <linearGradient id="linear-gradient" x1="658.19" y1="660.61" x2="658.19" y2="365.04" gradientTransform="translate(117.94 435.46) rotate(90) scale(1 -1)" gradientUnits="userSpaceOnUse">
      <stop offset="0" stop-color="#000" stop-opacity="0"/>
      <stop offset="1" stop-color="#000"/>
    </linearGradient>
    <clipPath id="clippath-3">
      <rect class="cls-19" x="429.52" y="660.73" width="256.73" height="244.51" rx="21.57" ry="21.57" transform="translate(-318.73 1177.76) rotate(-78.77)"/>
    </clipPath>
    <clipPath id="clippath-4">
      <rect class="cls-19" x="68.76" y="1144.87" width="256.73" height="244.51" rx="21.57" ry="21.57" transform="translate(-1084.13 1213.78) rotate(-78.77)"/>
    </clipPath>
    <clipPath id="clippath-5">
      <rect class="cls-19" x="302.96" y="1176.74" width="17.26" height="17.26" transform="translate(-911.75 1260.22) rotate(-78.77)"/>
    </clipPath>
    <clipPath id="clippath-6">
      <rect class="cls-19" x="537.77" y="126.47" width="256.73" height="244.51" rx="21.57" ry="21.57" transform="translate(292.48 853.69) rotate(-78.77)"/>
    </clipPath>
    <clipPath id="clippath-7">
      <rect class="cls-19" x="484.98" y="392.4" width="256.73" height="244.51" rx="21.57" ry="21.57" transform="translate(-10.87 1016.07) rotate(-78.77)"/>
    </clipPath>
    <linearGradient id="linear-gradient-2" x1="634.48" y1="1194.87" x2="634.48" y2="938.14" gradientTransform="translate(-453.15 -119.82) rotate(90) scale(1 -1)" gradientUnits="userSpaceOnUse">
      <stop offset="0" stop-color="#000" stop-opacity="0"/>
      <stop offset="1" stop-color="#000"/>
    </linearGradient>
    <clipPath id="clippath-8">
      <rect class="cls-19" x="658.31" y="550.02" width="17.26" height="17.26" transform="translate(-10.87 1104.06) rotate(-78.77)"/>
    </clipPath>
    <clipPath id="clippath-9">
      <path class="cls-19" d="m504.36,583.57h0c5.84,1.16,9.64,6.84,8.48,12.68h0c-1.16,5.84-6.84,9.64-12.68,8.48h0c-5.84-1.16-9.64-6.84-8.48-12.68h0c1.16-5.84,6.84-9.64,12.68-8.48Z"/>
    </clipPath>
    <clipPath id="clippath-10">
      <rect class="cls-19" x="628.99" y="614.12" width="12.94" height="12.94" rx="3.6" ry="3.6" transform="translate(-96.97 1123.08) rotate(-78.77)"/>
    </clipPath>
    <clipPath id="clippath-11">
      <rect class="cls-19" x="669.81" y="622.22" width="12.94" height="12.94" transform="translate(-72.05 1169.63) rotate(-78.77)"/>
    </clipPath>
    <clipPath id="clippath-12">
      <rect class="cls-19" x="406.97" y="641.64" width="17.26" height="17.26" transform="translate(-303.13 931.32) rotate(-78.77)"/>
    </clipPath>
  </defs>
  <g class="cls-16">
    <g>
      <rect class="cls-8" x="195.94" y="208.34" width="720" height="1024"/>
      <g class="cls-11">
        <g>
          <rect x="-180.09" y="383.16" width="1472.08" height="841.4" transform="translate(-340.77 1192.67) rotate(-78.77)"/>
          <g class="cls-7">
            <g>
              <rect class="cls-1" x="506.18" y="820.39" width="256.73" height="508.43" rx="21.57" ry="21.57" transform="translate(-543.04 1487.79) rotate(-78.77)"/>
              <rect class="cls-19" x="506.18" y="820.39" width="256.73" height="508.43" rx="21.57" ry="21.57" transform="translate(-543.04 1487.79) rotate(-78.77)"/>
              <rect class="cls-25" x="482.98" y="839.43" width="295.57" height="508.43" transform="translate(-564.76 1499.42) rotate(-78.77)"/>
              <path class="cls-3" d="m396.57,1122.91c-.02-.28-.08-.54-.18-.78-.1-.24-.23-.45-.41-.63-.17-.19-.38-.34-.62-.47-.24-.13-.51-.22-.82-.28-.58-.11-1.11-.07-1.61.13-.49.2-.91.55-1.26,1.05-.35.49-.6,1.14-.76,1.92-.16.79-.17,1.48-.04,2.08.13.6.38,1.09.76,1.46.38.37.87.62,1.46.74.54.11,1.02.1,1.44-.01.42-.12.77-.33,1.04-.65.28-.31.46-.71.56-1.19l.47.17-2.91-.58.36-1.8,4.72.94-.28,1.42c-.2.99-.58,1.8-1.14,2.43-.56.63-1.24,1.06-2.06,1.3-.81.24-1.69.26-2.64.07-1.06-.21-1.94-.63-2.65-1.25-.71-.63-1.2-1.42-1.48-2.37-.27-.96-.29-2.03-.05-3.22.18-.91.48-1.7.88-2.37.41-.67.91-1.2,1.49-1.61s1.22-.67,1.91-.81c.69-.13,1.41-.13,2.15.02.64.13,1.22.34,1.73.64.51.29.95.65,1.31,1.07.36.42.63.9.81,1.42.18.52.25,1.06.22,1.64l-2.43-.48Zm5.85,9.27c-.86-.17-1.56-.5-2.11-.99-.55-.49-.93-1.1-1.13-1.82-.21-.73-.23-1.52-.05-2.39.17-.87.49-1.61.96-2.19.47-.59,1.05-1.01,1.74-1.25.7-.24,1.47-.28,2.33-.11.86.17,1.56.5,2.11.99.55.49.93,1.09,1.14,1.82.21.72.22,1.52.05,2.39-.17.87-.49,1.6-.96,2.19-.47.59-1.05,1-1.75,1.25-.69.24-1.47.28-2.32.11Zm.37-1.82c.39.08.74.03,1.04-.14.31-.17.56-.44.77-.8.21-.36.37-.78.46-1.28.1-.49.12-.95.06-1.36-.06-.41-.19-.76-.41-1.03-.22-.28-.52-.45-.91-.53-.39-.08-.75-.03-1.06.14-.31.17-.57.44-.78.8-.21.36-.36.78-.46,1.28-.1.49-.12.95-.06,1.36.06.41.2.76.42,1.03.22.27.53.45.93.53Zm11.33,4.14c-.86-.17-1.56-.5-2.11-.99-.55-.49-.93-1.1-1.13-1.82-.21-.72-.23-1.52-.05-2.39.17-.87.49-1.6.96-2.19.47-.59,1.05-1.01,1.74-1.25.7-.24,1.47-.28,2.33-.11.86.17,1.56.5,2.11.99.55.49.93,1.09,1.14,1.82.21.72.22,1.52.05,2.39-.17.87-.49,1.6-.96,2.19-.47.59-1.05,1-1.75,1.25-.69.24-1.47.28-2.32.11Zm.37-1.82c.39.08.74.03,1.04-.14.31-.17.56-.44.77-.8.21-.36.37-.78.46-1.28.1-.49.12-.95.06-1.36-.06-.41-.19-.76-.41-1.03-.22-.28-.52-.45-.91-.53-.39-.08-.75-.03-1.06.14-.31.17-.57.44-.78.8-.21.36-.36.78-.46,1.28-.1.49-.12.95-.06,1.36.06.41.2.76.42,1.03.23.27.53.45.93.53Zm7.97-1.79l-.97,4.89-2.35-.47,1.68-8.46,2.24.44-.3,1.49.1.02c.29-.46.68-.78,1.17-.98.5-.2,1.06-.24,1.69-.12.59.12,1.07.35,1.46.69.39.34.65.78.8,1.3.15.52.16,1.11.03,1.77l-1.07,5.39-2.35-.47.99-4.97c.11-.52.05-.95-.16-1.29-.21-.35-.55-.57-1.02-.66-.32-.06-.61-.05-.88.04-.26.09-.49.25-.68.48-.18.23-.31.53-.39.89Zm10.9,7.41c-.54-.11-1-.3-1.39-.57-.38-.27-.66-.62-.84-1.04-.17-.42-.2-.91-.09-1.47.09-.47.26-.85.49-1.13.24-.28.52-.5.86-.63.34-.14.7-.22,1.1-.24.4-.02.82-.01,1.24.03.5.05.91.08,1.22.09.31.01.54-.02.7-.08.15-.07.25-.19.28-.37v-.03c.08-.35.02-.64-.16-.88-.18-.23-.47-.39-.87-.47-.42-.08-.78-.06-1.06.08-.29.13-.5.33-.63.6l-2.14-.61c.21-.49.52-.89.91-1.2.4-.31.87-.52,1.42-.62.55-.1,1.17-.09,1.85.04.47.09.91.24,1.32.43.41.2.76.44,1.05.74.29.3.5.65.62,1.05.12.4.13.85.03,1.35l-1.13,5.71-2.23-.44.23-1.17h-.07c-.19.22-.42.42-.68.58-.27.15-.57.25-.91.31-.34.05-.72.03-1.14-.05Zm.99-1.49c.35.07.66.06.96-.02.29-.09.54-.23.73-.44.2-.21.33-.46.38-.76l.18-.9c-.08.03-.19.06-.33.07-.13.01-.28.02-.44.02-.16,0-.33,0-.49-.01-.16,0-.31-.02-.44-.02-.28-.01-.54,0-.76.05-.22.05-.41.14-.55.26-.14.12-.24.3-.28.52-.06.32,0,.59.2.8.2.21.48.35.84.42Zm13.99-4.5l-.35,1.76-5.1-1.01.35-1.76,5.1,1.01Zm-3.54-2.81l2.35.47-1.57,7.89c-.04.22-.04.39,0,.53.04.13.12.23.23.3.11.07.25.12.4.15.11.02.22.03.34.04.11,0,.2,0,.26,0l.02,1.82c-.12.01-.3.02-.52.03-.22,0-.49-.01-.8-.06-.57-.09-1.05-.26-1.44-.52-.39-.26-.66-.59-.83-1-.16-.41-.19-.89-.07-1.45l1.63-8.2Zm2.68,11.44l1.68-8.47,2.28.45-.29,1.48.09.02c.26-.49.6-.84,1.01-1.04.42-.2.86-.25,1.34-.16.12.02.24.06.38.1.13.04.25.08.35.13l-.41,2.08c-.1-.05-.25-.11-.44-.18-.19-.06-.36-.11-.53-.14-.35-.07-.67-.05-.97.04-.3.09-.55.26-.76.49-.21.23-.34.52-.41.87l-.95,4.79-2.35-.47Zm5.64,1.12l1.68-8.46,2.35.47-1.68,8.46-2.35-.47Zm3.08-9.32c-.35-.07-.62-.24-.83-.53-.2-.28-.27-.59-.2-.92.06-.32.24-.58.53-.76.3-.19.62-.24.97-.17.35.07.62.24.82.53.2.28.27.58.21.91-.07.33-.25.58-.54.77-.29.18-.61.24-.96.17Zm-.18,13.2l2.31-11.64,2.32.46-.28,1.42.1.02c.15-.21.34-.41.58-.61.25-.2.54-.35.89-.44.35-.1.77-.1,1.24,0,.62.12,1.15.4,1.61.82.46.42.78.99.96,1.7.18.7.18,1.54-.01,2.51-.19.94-.5,1.71-.93,2.3-.43.59-.94.99-1.53,1.23-.58.23-1.2.28-1.84.15-.46-.09-.83-.24-1.12-.46-.29-.21-.51-.45-.67-.72-.16-.27-.26-.54-.32-.79h-.07s-.9,4.52-.9,4.52l-2.35-.47Zm3.77-6.95c-.1.5-.12.96-.05,1.36.07.4.21.74.43,1,.22.26.52.42.9.5.38.08.73.04,1.03-.12.31-.16.57-.41.78-.76.21-.35.37-.77.47-1.26.1-.49.11-.93.05-1.33-.06-.4-.21-.73-.43-.99s-.53-.43-.91-.51c-.38-.08-.73-.04-1.03.11-.3.15-.56.4-.77.74-.21.34-.37.77-.47,1.27Zm10.53,6.49l-.62-8.92,2.38.47.18,5.95.08.02,2.49-5.41,2.33.46.27,5.93h.07s2.41-5.38,2.41-5.38l2.37.47-3.98,8.01-2.49-.49-.4-5.61-.11-.02-2.51,5.03-2.48-.49Zm10.83,2.15l1.68-8.47,2.35.47-1.68,8.46-2.35-.46Zm3.07-9.32c-.35-.07-.62-.24-.83-.53-.2-.28-.27-.59-.2-.92.06-.32.24-.58.54-.76.3-.18.62-.24.97-.17.35.07.62.25.82.53.2.28.27.58.21.91-.07.33-.24.58-.54.77-.29.18-.61.24-.96.17Zm6.63,2.45l-.35,1.76-5.1-1.01.35-1.76,5.1,1.01Zm-3.54-2.81l2.35.47-1.57,7.89c-.04.22-.04.39,0,.53.04.13.12.23.23.3.11.07.25.12.4.15.11.02.22.03.34.04.11,0,.2,0,.26,0l.02,1.82c-.12.01-.3.02-.52.03-.22,0-.49-.01-.8-.06-.57-.09-1.05-.26-1.44-.52-.39-.26-.66-.59-.83-1-.16-.41-.19-.89-.07-1.45l1.63-8.2Zm6.18,7.05l-.97,4.89-2.35-.47,2.24-11.29,2.28.45-.86,4.32.1.02c.29-.46.68-.79,1.16-.99.48-.2,1.05-.24,1.69-.11.59.12,1.07.35,1.46.69.39.34.66.77.81,1.3.15.52.16,1.11.03,1.78l-1.07,5.39-2.35-.47.99-4.97c.11-.52.06-.95-.15-1.3-.21-.34-.55-.56-1.03-.66-.32-.06-.62-.05-.89.03-.27.09-.5.25-.69.48-.19.23-.32.53-.39.89Zm14.78-.78l-.35,1.76-5.22-1.04.35-1.76,5.22,1.04Zm-5.71,7.66l1.8-9.08c.12-.61.34-1.1.66-1.46.32-.36.71-.59,1.17-.71.46-.12.95-.13,1.49-.02.36.07.68.16.97.28.29.11.51.21.64.28l-.77,1.68c-.09-.05-.19-.1-.32-.15-.13-.05-.26-.09-.4-.12-.35-.07-.6-.04-.77.1-.17.13-.28.34-.34.63l-1.79,9.03-2.34-.47Zm4.76.94l1.68-8.46,2.28.45-.29,1.48.09.02c.26-.49.6-.84,1.01-1.04.42-.2.86-.25,1.34-.16.12.02.24.06.38.1.13.04.25.08.35.13l-.41,2.08c-.1-.05-.25-.11-.44-.18-.19-.07-.37-.11-.53-.14-.35-.07-.67-.05-.97.04-.3.09-.55.26-.76.49-.21.23-.35.52-.41.87l-.95,4.79-2.35-.47Zm5.64,1.12l1.68-8.46,2.35.47-1.68,8.46-2.35-.47Zm3.08-9.32c-.35-.07-.62-.25-.83-.53-.2-.28-.27-.59-.2-.92.06-.32.24-.58.53-.76.3-.18.62-.24.97-.17.35.07.62.25.82.53.2.28.27.58.21.91-.07.33-.25.58-.54.77-.29.18-.61.24-.96.17Zm4.27,10.95c-.87-.17-1.59-.5-2.14-.98-.55-.48-.93-1.08-1.14-1.8-.21-.72-.22-1.53-.05-2.42.17-.87.49-1.6.96-2.19.47-.59,1.05-1.01,1.73-1.25.69-.24,1.45-.29,2.28-.12.56.11,1.06.3,1.51.58.45.27.82.62,1.11,1.05.29.43.49.93.58,1.51.1.58.07,1.22-.07,1.94l-.13.65-7.15-1.42.29-1.46,4.94.98c.07-.34.05-.65-.04-.94s-.26-.53-.49-.73c-.23-.2-.51-.34-.85-.4-.36-.07-.69-.05-1,.06-.3.11-.56.28-.77.53-.21.24-.35.53-.42.86l-.27,1.38c-.08.42-.08.8.02,1.13.1.34.27.62.53.84.25.22.58.37.97.45.26.05.51.06.74.03.23-.03.44-.1.62-.22.18-.12.34-.27.46-.47l2.14.57c-.21.5-.53.91-.95,1.23-.41.32-.91.53-1.49.64-.58.11-1.21.09-1.91-.05Zm8.06-3.66l-.97,4.89-2.35-.47,1.68-8.47,2.24.44-.3,1.49.1.02c.29-.46.68-.78,1.17-.98.5-.2,1.06-.24,1.69-.12.59.12,1.08.35,1.46.69.39.34.65.78.8,1.3.15.52.16,1.11.03,1.77l-1.07,5.39-2.35-.47.99-4.97c.11-.52.05-.95-.16-1.29-.21-.35-.55-.57-1.02-.66-.32-.06-.61-.05-.88.04-.27.09-.49.25-.68.48-.18.23-.31.53-.39.89Zm8.72,6.96c-.64-.13-1.19-.41-1.65-.84-.45-.44-.77-1.01-.94-1.72-.17-.71-.16-1.54.02-2.48.19-.97.51-1.74.95-2.33.44-.59.95-.99,1.53-1.2.59-.22,1.19-.27,1.81-.15.47.09.85.25,1.14.48.29.22.51.47.65.75.15.27.26.54.31.78h.07s.84-4.23.84-4.23l2.34.47-2.24,11.29-2.32-.46.27-1.35-.1-.02c-.16.21-.36.42-.61.61-.24.19-.54.33-.89.41-.35.09-.75.09-1.2,0Zm1.11-1.72c.38.07.72.04,1.02-.12.31-.16.57-.41.78-.76.22-.35.38-.77.48-1.28.1-.5.12-.95.05-1.35-.07-.4-.21-.73-.43-.98-.23-.25-.53-.42-.9-.49-.39-.08-.73-.04-1.04.12s-.56.41-.77.75c-.21.34-.36.76-.46,1.25-.1.49-.12.94-.05,1.35.07.4.21.74.43,1,.22.26.53.43.91.51Zm13.2-1.87l-2.17-.29c0-.19-.05-.37-.14-.54-.09-.18-.23-.33-.41-.45-.18-.13-.4-.22-.67-.28-.36-.07-.69-.05-.97.05-.28.1-.44.28-.49.53-.04.2,0,.39.14.56.13.17.39.34.77.5l1.47.61c.79.33,1.35.73,1.68,1.18s.43.99.31,1.6c-.11.55-.37,1.01-.78,1.36-.41.36-.92.59-1.53.72-.61.12-1.28.11-2.01-.04-1.12-.22-1.97-.63-2.54-1.23-.57-.6-.83-1.32-.78-2.15l2.33.34c0,.36.12.65.35.88.23.23.56.39.98.47.41.08.76.07,1.04-.04.29-.11.46-.29.51-.55.04-.21-.02-.41-.17-.58-.15-.17-.4-.33-.75-.48l-1.41-.58c-.79-.33-1.35-.74-1.68-1.23-.32-.49-.42-1.05-.29-1.68.11-.54.35-.98.72-1.32.38-.33.85-.55,1.43-.66.58-.11,1.24-.09,1.96.06,1.07.21,1.87.61,2.39,1.18.53.57.76,1.26.71,2.06Z"/>
              <g>
                <rect class="cls-26" x="804.82" y="1178.84" width="21.63" height="58.14" rx="5.75" ry="5.75" transform="translate(-527.96 1772.77) rotate(-78.77)"/>
                <path class="cls-3" d="m799.41,1201.86l.64,5.16h.06s2.56-4.52,2.56-4.52l1.23.24-3.39,5.73-1.38-.28-.95-6.59,1.22.24Zm4.03,7.2l.92-4.62,1.09.21-.92,4.62-1.09-.22Zm1.59-5.16c-.17-.03-.31-.12-.41-.26-.1-.14-.14-.29-.1-.46.03-.16.12-.29.27-.38.15-.09.31-.12.48-.09.17.03.31.12.41.26.1.14.14.29.1.46-.03.16-.12.29-.27.38-.15.09-.3.12-.48.08Zm4.94,2.93l-1.01-.09c0-.11-.04-.21-.09-.31-.05-.1-.13-.19-.23-.27-.11-.08-.24-.13-.41-.17-.23-.04-.43-.03-.6.03-.17.07-.27.18-.3.34-.03.13,0,.25.08.36.09.1.24.21.46.31l.75.33c.42.18.71.39.89.64.17.25.23.54.16.87-.06.29-.2.53-.41.72-.21.19-.48.31-.8.38-.32.06-.67.06-1.06-.02-.57-.11-1-.32-1.29-.62-.3-.31-.44-.68-.42-1.12l1.08.11c0,.21.08.39.21.53.14.14.33.23.58.28.26.05.48.04.65-.04.18-.07.28-.19.32-.34.03-.13,0-.25-.09-.36-.08-.11-.23-.2-.43-.29l-.76-.32c-.42-.18-.72-.4-.89-.66-.17-.26-.22-.56-.15-.9.05-.29.18-.52.38-.69.2-.18.45-.3.76-.36.31-.06.64-.05,1.01.02.54.11.94.31,1.21.6.27.29.4.64.4,1.05Zm.32,3.59l.92-4.62,1.09.22-.92,4.62-1.09-.22Zm1.59-5.16c-.17-.03-.31-.12-.41-.26-.1-.14-.14-.29-.1-.45.03-.16.12-.29.27-.38.15-.09.31-.12.48-.09.18.03.31.12.41.26.1.14.14.29.1.46-.03.16-.12.29-.27.38-.14.09-.3.12-.48.08Zm3.84,1.44l-.17.84-2.65-.53.17-.84,2.65.53Zm-1.78-1.5l1.09.22-.86,4.34c-.03.14-.03.26,0,.35.03.08.08.15.15.19.07.04.15.07.24.09.07.01.13.02.19.02h.14l.02.89c-.06.01-.15.01-.26.01-.11,0-.24,0-.4-.03-.27-.05-.51-.14-.71-.27-.2-.14-.34-.31-.43-.53-.09-.22-.1-.47-.04-.76l.9-4.51Zm8.15,2.93c.02-.27-.05-.5-.23-.68-.18-.19-.43-.31-.76-.38-.23-.05-.44-.05-.62-.01-.18.04-.33.11-.44.21-.11.1-.18.23-.22.39-.03.13-.02.24.02.35.04.11.11.2.2.29.09.09.19.16.31.23.11.07.23.13.35.19l.55.26c.22.1.43.21.63.35.2.13.37.29.51.46.15.18.25.37.31.59.06.22.06.46.01.73-.07.36-.23.66-.46.9-.24.23-.55.39-.93.48-.38.08-.81.07-1.31-.02-.48-.1-.88-.26-1.2-.47-.32-.22-.55-.49-.7-.82-.14-.32-.18-.69-.11-1.1l1.1.22c-.03.22,0,.41.09.57.09.17.22.3.39.41.17.11.38.19.61.23.24.05.46.06.66.02.2-.04.36-.11.49-.22s.21-.26.25-.43c.03-.16,0-.3-.06-.43-.07-.12-.18-.23-.34-.34-.15-.1-.33-.21-.54-.3l-.66-.32c-.48-.24-.84-.51-1.09-.84-.24-.32-.32-.7-.23-1.14.07-.36.23-.66.48-.89.25-.23.56-.39.93-.47.37-.09.77-.09,1.2,0,.44.09.8.24,1.1.46.3.22.52.48.65.78.14.3.17.63.11.98l-1.07-.21Zm1.22,4.88l.92-4.61,1.09.21-.92,4.62-1.09-.22Zm1.59-5.16c-.17-.03-.31-.12-.41-.26-.1-.14-.14-.29-.1-.45.03-.16.12-.29.27-.38.15-.09.31-.12.48-.09.17.03.31.12.41.26.1.14.14.29.1.46-.03.16-.12.29-.27.38-.15.09-.3.12-.48.08Zm3.83,1.44l-.17.85-2.65-.53.17-.84,2.65.52Zm-1.78-1.5l1.09.22-.86,4.33c-.03.15-.03.26,0,.35.03.09.08.15.15.19.07.05.15.08.24.09.07.02.13.02.19.03h.14v.88s-.14.02-.25.02-.24-.01-.4-.04c-.27-.04-.51-.13-.71-.27-.2-.13-.35-.31-.43-.53-.09-.21-.1-.47-.04-.75l.9-4.52Zm3.75,6.79c-.46-.09-.84-.27-1.14-.53-.3-.26-.5-.59-.61-.98-.11-.39-.12-.83-.02-1.31s.27-.87.52-1.2c.25-.32.56-.55.93-.69.37-.13.77-.16,1.21-.07.28.06.54.15.78.3.24.14.43.32.59.55.16.23.26.5.32.82s.04.68-.04,1.08l-.07.33-3.79-.75.15-.73,2.74.54c.04-.21.03-.4-.03-.58-.05-.18-.15-.34-.29-.46-.14-.13-.31-.21-.52-.25-.22-.04-.43-.03-.62.05-.19.07-.35.18-.48.34-.13.15-.21.33-.25.54l-.13.64c-.05.27-.05.51.01.72.06.21.17.38.32.52.16.13.35.23.59.27.16.03.31.04.44.02.14-.02.26-.06.37-.13.11-.07.21-.17.28-.29l.99.32c-.12.25-.29.46-.51.63-.22.16-.48.27-.78.32-.3.06-.63.05-.99-.02Z"/>
              </g>
              <g>
                <rect class="cls-26" x="448.35" y="907.16" width="20.19" height="67.82" rx="5.75" ry="5.75" transform="translate(-553.87 1207.52) rotate(-78.77)"/>
                <path class="cls-3" d="m433.81,938.73l-.99-.2,2.82-4.77,1.15.23.79,5.49-.99-.2-.56-4.35h-.04s-2.18,3.8-2.18,3.8Zm.43-2.01l2.71.54-.15.75-2.7-.54.15-.75Zm5.27,3.21c-.3-.06-.56-.19-.77-.4-.21-.2-.35-.47-.43-.79-.08-.32-.08-.7,0-1.12.09-.43.23-.77.43-1.04.2-.27.44-.45.71-.55.27-.1.55-.13.85-.07.23.04.4.12.53.23.13.1.23.22.29.34.06.12.11.23.14.34h.04s.38-1.91.38-1.91l.91.18-1.02,5.13-.89-.18.12-.61h-.05c-.07.07-.15.16-.26.25-.11.09-.24.15-.4.2-.16.04-.35.04-.57,0Zm.4-.69c.19.04.37.02.52-.06.16-.08.29-.2.4-.38.11-.17.19-.38.24-.63.05-.25.06-.47.02-.67-.03-.2-.11-.36-.22-.49-.11-.13-.27-.21-.46-.25-.2-.04-.38-.02-.54.06-.16.08-.29.2-.39.38-.11.17-.18.38-.23.62-.05.24-.06.46-.03.66.03.2.11.37.22.51.12.13.27.22.47.26Zm6.83-1.94l-2.13,3.58-1-.2-.61-4.12.97.19.32,3.03h.04s1.46-2.67,1.46-2.67l.96.19Zm1.42,4.36c-.39-.08-.7-.22-.95-.44-.25-.22-.42-.49-.51-.81-.09-.33-.1-.69-.02-1.09.08-.4.22-.73.43-1,.21-.27.47-.46.78-.58.3-.11.64-.14,1.01-.06.24.05.45.13.65.25.2.12.36.27.49.46.13.19.22.42.27.68.05.26.03.56-.03.9l-.06.28-3.15-.63.12-.61,2.28.45c.03-.17.03-.34-.02-.49-.05-.15-.13-.28-.24-.38-.11-.1-.26-.17-.43-.21-.18-.04-.36-.02-.51.04-.16.06-.29.16-.4.29-.1.13-.18.28-.21.45l-.11.53c-.04.22-.04.42,0,.6.05.17.14.32.27.43.13.11.29.19.49.23.13.03.25.03.37.02.12-.02.22-.05.31-.11.09-.06.17-.14.23-.24l.83.26c-.1.21-.24.39-.42.53-.18.14-.4.23-.65.27-.25.04-.52.04-.82-.02Zm2.49.42l.76-3.85.88.17-.13.64h.04c.11-.2.27-.35.46-.43.2-.09.4-.11.62-.07.05,0,.11.02.17.04.06.02.11.03.15.05l-.17.83s-.1-.04-.18-.07c-.08-.03-.16-.05-.24-.07-.16-.03-.32-.03-.47.02-.14.04-.27.12-.37.23-.1.11-.17.25-.2.41l-.45,2.26-.91-.18Zm5.69-2.87l-.14.7-2.21-.44.14-.7,2.21.44Zm-1.48-1.25l.91.18-.72,3.61c-.02.12-.02.22,0,.29.03.07.07.12.12.16.06.04.12.06.2.08.06.01.11.02.16.02.05,0,.09,0,.11,0v.74s-.11.01-.21.01c-.09,0-.2,0-.33-.03-.23-.04-.43-.11-.59-.22-.17-.11-.29-.26-.36-.44-.07-.18-.09-.39-.04-.63l.75-3.76Zm1.48,5.25l.76-3.85.91.18-.76,3.85-.91-.18Zm1.33-4.3c-.14-.03-.26-.1-.34-.22-.08-.12-.11-.24-.09-.38.03-.14.1-.24.23-.32.12-.08.26-.1.4-.07.15.03.26.1.34.22.09.12.11.24.09.38-.03.14-.1.24-.23.32-.12.08-.25.1-.4.07Zm4.11,2.44l-.84-.07c0-.09-.03-.18-.08-.26-.04-.08-.11-.16-.2-.22-.09-.06-.2-.11-.34-.14-.19-.04-.36-.03-.5.03-.14.06-.23.15-.25.28-.02.11,0,.21.07.3.07.09.2.17.39.26l.63.27c.35.15.6.33.74.53.15.21.19.45.14.72-.05.24-.16.44-.34.6-.18.16-.4.26-.66.32-.27.05-.56.05-.88-.01-.47-.09-.83-.27-1.08-.52-.25-.26-.36-.57-.35-.93l.9.09c0,.18.07.33.18.44.11.11.27.19.48.23.21.04.4.03.55-.03.15-.06.24-.16.26-.29.02-.11,0-.21-.07-.3-.07-.09-.19-.17-.36-.24l-.63-.27c-.35-.15-.6-.33-.74-.55-.14-.22-.18-.47-.12-.75.05-.24.15-.43.32-.58.17-.15.38-.25.63-.3.26-.05.54-.04.84.02.45.09.79.26,1.01.5.22.24.33.54.33.88Zm1.96,3.41c-.39-.08-.7-.22-.95-.44-.25-.22-.42-.49-.51-.81-.09-.33-.1-.69-.02-1.1.08-.39.22-.73.43-1,.21-.27.47-.46.77-.58.31-.11.64-.14,1.01-.06.24.05.45.13.65.25.2.12.36.27.49.46.13.19.22.42.27.68.05.26.03.56-.03.9l-.06.28-3.15-.63.12-.61,2.29.45c.03-.17.02-.34-.02-.49-.05-.15-.13-.28-.24-.38-.12-.1-.26-.17-.43-.21-.18-.04-.36-.02-.51.04-.16.06-.29.16-.4.28-.11.13-.18.28-.21.45l-.11.53c-.05.22-.04.42,0,.6.05.17.14.32.27.43.13.11.29.19.49.23.13.03.26.03.37.02.11-.02.22-.05.31-.11.09-.06.17-.14.23-.24l.83.26c-.1.21-.24.39-.42.53-.18.14-.4.23-.65.27-.25.04-.52.04-.82-.02Zm2.49.42l.76-3.85.87.17-.13.65h.04c.12-.2.29-.34.5-.43.21-.09.44-.11.7-.06.26.05.47.16.62.32.16.16.25.36.28.59h.04c.13-.19.3-.33.53-.42.23-.09.48-.1.76-.05.35.07.62.24.8.51.18.27.23.62.14,1.05l-.51,2.58-.91-.18.48-2.44c.05-.24.02-.43-.09-.56-.1-.14-.25-.22-.43-.26-.22-.04-.4,0-.55.1-.15.11-.24.28-.29.49l-.48,2.4-.89-.18.49-2.48c.04-.2,0-.37-.09-.51-.1-.14-.24-.23-.43-.27-.13-.03-.26-.02-.38.03-.12.04-.22.12-.31.23-.09.11-.15.24-.18.4l-.46,2.34-.91-.18Zm8.02,1.67c-.39-.08-.7-.22-.95-.44-.25-.22-.42-.49-.51-.81-.09-.33-.1-.69-.02-1.09.08-.4.22-.73.43-1,.21-.27.47-.46.77-.58.31-.11.64-.14,1.01-.06.24.05.45.13.65.25.2.12.36.27.49.46.13.19.22.42.27.68.04.26.03.56-.03.9l-.05.28-3.15-.63.12-.61,2.28.45c.03-.17.03-.34-.02-.49-.05-.15-.13-.28-.24-.38-.11-.1-.26-.17-.43-.21-.18-.04-.36-.02-.51.04-.16.06-.29.16-.4.29-.1.13-.18.28-.21.45l-.1.53c-.05.22-.04.42,0,.6.05.17.14.32.27.43.13.11.3.19.49.23.13.03.26.03.37.02.11-.02.22-.05.31-.11.09-.06.17-.14.23-.24l.83.26c-.1.21-.24.39-.42.53-.18.14-.4.23-.65.27-.25.04-.52.04-.82-.02Zm3.85-1.66l-.45,2.26-.91-.18.76-3.85.87.17-.13.65h.05c.13-.19.31-.33.52-.42.22-.09.47-.1.76-.05.27.05.49.16.66.31.18.15.3.35.36.58.07.24.07.51,0,.82l-.49,2.45-.91-.18.46-2.31c.05-.26.02-.47-.08-.64-.1-.17-.27-.28-.51-.33-.16-.03-.31-.02-.44.02-.14.04-.25.12-.35.24-.1.12-.16.27-.2.45Zm5.63-.54l-.14.7-2.21-.44.14-.7,2.21.44Zm-1.48-1.25l.91.18-.72,3.61c-.02.12-.02.22,0,.29.02.07.07.12.12.16.06.04.12.06.2.08.06.01.11.02.16.02.05,0,.09,0,.11,0v.74s-.11.01-.21.01c-.09,0-.2,0-.33-.03-.23-.04-.43-.11-.59-.22-.17-.11-.29-.26-.36-.44-.07-.18-.09-.39-.04-.63l.75-3.76Z"/>
              </g>
            </g>
          </g>
          <g class="cls-20">
            <g>
              <rect class="cls-1" x="429.52" y="660.73" width="256.73" height="244.51" rx="21.57" ry="21.57" transform="translate(-318.73 1177.76) rotate(-78.77)"/>
              <rect class="cls-19" x="429.52" y="660.73" width="256.73" height="244.51" rx="21.57" ry="21.57" transform="translate(-318.73 1177.76) rotate(-78.77)"/>
              <rect class="cls-19" x="387.49" y="608.51" width="353.82" height="283.34" transform="translate(-281.31 1157.73) rotate(-78.77)"/>
            </g>
          </g>
          <rect class="cls-1" x="688.4" y="712.11" width="256.73" height="244.51" rx="21.57" ry="21.57" transform="translate(-160.65 1473.06) rotate(-78.77)"/>
          <rect class="cls-19" x="688.4" y="712.11" width="256.73" height="244.51" rx="21.57" ry="21.57" transform="translate(-160.65 1473.06) rotate(-78.77)"/>
          <rect class="cls-1" x="281.01" y="75.51" width="256.73" height="244.51" rx="21.57" ry="21.57" transform="translate(135.69 560.8) rotate(-78.77)"/>
          <rect class="cls-19" x="281.01" y="75.51" width="256.73" height="244.51" rx="21.57" ry="21.57" transform="translate(135.69 560.8) rotate(-78.77)"/>
          <g class="cls-12">
            <g>
              <rect class="cls-1" x="68.76" y="1144.87" width="256.73" height="244.51" rx="21.57" ry="21.57" transform="translate(-1084.13 1213.78) rotate(-78.77)"/>
              <rect class="cls-19" x="68.76" y="1144.87" width="256.73" height="244.51" rx="21.57" ry="21.57" transform="translate(-1084.13 1213.78) rotate(-78.77)"/>
              <rect class="cls-19" x="39.54" y="1168.85" width="305.64" height="244.51" transform="translate(-1111.49 1228.42) rotate(-78.77)"/>
              <g class="cls-23">
                <path class="cls-3" d="m315,1188.13l1.31-6.6c.2-1.02-.45-1.99-1.47-2.2l-6.56-1.3c-1.02-.2-1.99.45-2.2,1.47l-1.31,6.6c-.2,1.02.45,1.99,1.47,2.2l6.6,1.31c.99.16,1.97-.49,2.16-1.48Zm2.58-4.88l-1.13,5.68c-.32,1.59-1.88,2.63-3.47,2.32l-5.68-1.13c-.21-.04-.37.18-.25.35.28.46.72.8,1.32.92l4.73.94c2.01.4,3.95-.9,4.35-2.91l.94-4.73c.11-.57-.03-1.14-.35-1.57-.15-.18-.42-.08-.47.13Z"/>
              </g>
            </g>
          </g>
          <rect class="cls-1" x="228.22" y="341.44" width="256.73" height="244.51" rx="21.57" ry="21.57" transform="translate(-167.65 723.18) rotate(-78.77)"/>
          <rect class="cls-19" x="228.22" y="341.44" width="256.73" height="244.51" rx="21.57" ry="21.57" transform="translate(-167.65 723.18) rotate(-78.77)"/>
          <g class="cls-9">
            <g>
              <rect class="cls-1" x="537.77" y="126.47" width="256.73" height="244.51" rx="21.57" ry="21.57" transform="translate(292.48 853.69) rotate(-78.77)"/>
              <rect class="cls-19" x="503.18" y="152.71" width="322.89" height="258.89" transform="translate(258.48 879.13) rotate(-78.77)"/>
            </g>
          </g>
          <rect class="cls-1" x="290.22" y="1224.8" width="530.73" height="506.27" rx="21.57" ry="21.57" transform="translate(-1002.24 1735.16) rotate(-78.77)"/>
          <rect class="cls-19" x="290.22" y="1224.8" width="530.73" height="506.27" rx="21.57" ry="21.57" transform="translate(-1002.24 1735.16) rotate(-78.77)"/>
          <g class="cls-10">
            <g>
              <rect class="cls-1" x="484.98" y="392.4" width="256.73" height="244.51" rx="21.57" ry="21.57" transform="translate(-10.87 1016.07) rotate(-78.77)"/>
              <rect class="cls-19" x="484.98" y="392.4" width="256.73" height="244.51" rx="21.57" ry="21.57" transform="translate(-10.87 1016.07) rotate(-78.77)"/>
              <rect class="cls-24" x="484.98" y="392.4" width="256.73" height="244.51" transform="translate(-10.87 1016.07) rotate(-78.77)"/>
              <g class="cls-21">
                <path class="cls-18" d="m666.01,552.23l.21-1.06m-3.21,1.61l-.6-.9m-.51,6.5l-.9.6m7.61-5.09l.9-.6m-8.15,2.05l-1.06-.21m8.77,7.01l-2.4,2.92c-.27.33-.41.5-.54.52-.11.02-.23-.01-.31-.09-.1-.09-.12-.31-.16-.74l-.87-8.4c-.04-.35-.05-.53,0-.63.05-.09.15-.15.25-.17.12-.02.27.07.58.23l7.44,4.01c.38.2.57.31.62.43.04.11.03.23-.03.32-.07.11-.28.17-.69.3l-3.61,1.11c-.06.02-.09.03-.12.04-.02.01-.05.03-.07.05-.02.02-.04.05-.08.09Z"/>
              </g>
              <g class="cls-15">
                <g>
                  <path class="cls-5" d="m504.36,583.57h0c5.84,1.16,9.64,6.84,8.48,12.68h0c-1.16,5.84-6.84,9.64-12.68,8.48h0c-5.84-1.16-9.64-6.84-8.48-12.68h0c1.16-5.84,6.84-9.64,12.68-8.48Z"/>
                  <rect class="cls-19" x="491.47" y="583.36" width="21.57" height="21.57" transform="translate(-178.31 971.12) rotate(-78.77)"/>
                  <path class="cls-19" d="m504.36,583.57h0c5.84,1.16,9.64,6.84,8.48,12.68h0c-1.16,5.84-6.84,9.64-12.68,8.48h0c-5.84-1.16-9.64-6.84-8.48-12.68h0c1.16-5.84,6.84-9.64,12.68-8.48Z"/>
                  <rect class="cls-17" x="491.83" y="583.72" width="20.86" height="20.86" rx="10.43" ry="10.43" transform="translate(-178.31 971.12) rotate(-78.77)"/>
                </g>
              </g>
              <path class="cls-3" d="m515.68,599.87l1.22-6.16,1.12.22-1.04,5.22,2.71.54-.19.93-3.83-.76Zm5.35,1.16c-.29-.06-.55-.16-.76-.31-.21-.15-.37-.35-.46-.58-.09-.23-.11-.5-.05-.8.05-.26.14-.47.27-.62s.29-.26.48-.33c.19-.07.39-.11.61-.12.22-.01.45,0,.68.01.28.03.5.04.67.06.17,0,.3,0,.39-.04.09-.04.14-.1.16-.21v-.02c.05-.23.02-.41-.09-.57-.11-.15-.29-.25-.54-.3-.27-.05-.49-.04-.67.05-.18.09-.31.2-.39.35l-.99-.35c.14-.26.31-.47.54-.62.22-.15.48-.25.76-.29.29-.04.59-.03.91.03.22.05.44.11.65.21.21.1.39.22.55.38.16.15.27.35.34.57.07.23.08.49.02.8l-.61,3.09-1.05-.21.13-.63h-.04c-.09.11-.21.21-.35.3-.14.09-.31.15-.5.18-.19.03-.41.02-.65-.03Zm.44-.74c.22.04.42.04.59-.02.18-.06.32-.15.44-.28.12-.13.19-.27.23-.45l.11-.54s-.1.04-.19.04c-.08,0-.18.01-.28,0-.1,0-.21,0-.31-.01-.1,0-.19,0-.26-.01-.17-.01-.32,0-.46.02-.14.02-.25.07-.35.15-.09.07-.15.18-.18.32-.04.2,0,.37.13.5.13.13.3.22.53.27Zm5.73-.15l.53-2.68,1.09.22-.92,4.62-1.05-.21.16-.82h-.05c-.16.23-.37.41-.64.52-.27.12-.58.14-.92.07-.3-.06-.56-.18-.76-.36-.2-.18-.35-.41-.42-.7-.08-.29-.08-.61,0-.98l.58-2.94,1.09.22-.55,2.77c-.06.29-.02.54.1.75.13.2.32.33.58.38.16.03.32.02.49-.02.17-.05.31-.14.44-.28.13-.14.22-.32.26-.56Zm1.12,2.24l.92-4.62,1.06.21-.15.77h.05c.14-.24.32-.42.55-.52.24-.11.49-.13.75-.08.06.01.13.03.2.05.08.02.14.04.18.06l-.2,1s-.11-.05-.21-.09c-.1-.03-.19-.06-.28-.08-.2-.04-.39-.03-.56.02-.17.05-.32.15-.44.28-.12.13-.2.3-.24.49l-.54,2.71-1.09-.22Zm3.88.87c-.29-.06-.55-.16-.76-.31-.21-.15-.37-.35-.46-.58-.09-.23-.11-.5-.05-.8.05-.26.14-.47.27-.62.13-.15.29-.26.48-.33.19-.07.39-.11.61-.12.22-.01.45,0,.68.01.28.02.5.04.67.05.17,0,.3,0,.39-.04.09-.03.14-.1.16-.21v-.02c.05-.23.02-.42-.09-.57-.11-.15-.29-.25-.54-.3-.27-.05-.49-.04-.67.05-.18.09-.31.2-.39.35l-.99-.35c.14-.26.32-.47.54-.62.22-.15.48-.25.76-.29.29-.04.59-.03.91.03.22.04.44.11.65.21s.39.22.55.38c.16.15.27.35.34.57.07.23.08.49.02.8l-.61,3.09-1.05-.21.13-.63h-.04c-.09.11-.21.21-.35.3-.14.09-.31.15-.5.18-.19.03-.41.02-.65-.02Zm.44-.74c.22.04.42.04.59-.02.18-.06.32-.15.44-.27.12-.13.19-.28.23-.45l.11-.54s-.1.04-.19.04c-.08,0-.18.01-.28,0-.1,0-.21,0-.31-.01-.1,0-.19-.01-.26-.02-.17,0-.32,0-.46.02-.14.03-.25.08-.35.15-.09.07-.15.18-.18.32-.04.2,0,.37.13.5.13.13.3.22.53.26Zm2.4,1.21l.92-4.62,1.04.21-.16.79h.05c.15-.24.35-.41.6-.51.25-.11.53-.13.84-.07.31.06.56.19.74.39.19.19.3.43.33.71h.05c.15-.23.37-.4.64-.5.27-.11.58-.13.91-.06.42.08.74.29.96.61.21.32.27.74.17,1.25l-.62,3.1-1.09-.22.58-2.93c.06-.29.02-.51-.1-.67-.13-.16-.3-.27-.52-.31-.26-.05-.49-.01-.67.12-.18.13-.29.33-.35.59l-.57,2.88-1.07-.21.59-2.98c.05-.24.01-.44-.1-.61-.11-.17-.29-.28-.52-.32-.16-.03-.31-.02-.45.03-.14.05-.27.14-.37.27-.1.13-.18.29-.21.48l-.56,2.81-1.09-.22Zm8.2,1.72c-.29-.06-.55-.16-.76-.31-.21-.15-.36-.35-.46-.58-.09-.23-.11-.5-.05-.8.05-.26.14-.47.27-.62.13-.15.29-.26.48-.33.19-.07.39-.11.61-.12.22-.01.45,0,.67.01.28.03.5.04.67.06.17,0,.3,0,.39-.04.09-.03.14-.1.16-.21v-.02c.05-.23.02-.41-.09-.57-.11-.15-.29-.25-.54-.3-.27-.05-.49-.04-.67.05-.18.09-.31.2-.39.35l-.99-.35c.14-.26.31-.47.54-.62.22-.15.48-.25.76-.29.29-.04.59-.03.91.03.22.04.44.11.65.21.21.1.4.22.55.38.16.15.27.35.34.57.07.23.08.49.02.8l-.61,3.09-1.05-.21.13-.63h-.04c-.09.11-.21.21-.35.3-.14.09-.31.15-.5.18-.19.03-.41.02-.65-.03Zm.44-.74c.22.04.42.04.59-.02.18-.06.32-.15.44-.28.12-.13.19-.27.23-.45l.11-.54s-.1.04-.19.04c-.08,0-.18.01-.28,0-.1,0-.21,0-.31-.01-.1,0-.19,0-.26-.01-.17-.01-.32,0-.46.02-.14.02-.25.07-.35.15-.09.07-.15.18-.18.32-.04.2,0,.37.13.5.13.13.3.22.53.26Zm5.62-2.95l-.17.84-2.65-.53.17-.84,2.65.53Zm-1.78-1.5l1.09.22-.86,4.33c-.03.15-.03.26,0,.35.03.08.08.15.15.19.07.04.15.07.24.09.07.01.13.02.19.02.06,0,.11,0,.14,0v.89s-.14.01-.25.02c-.11,0-.24,0-.4-.04-.27-.05-.51-.14-.71-.27-.2-.14-.35-.31-.43-.53-.09-.22-.1-.47-.04-.76l.9-4.52Zm4.29,2l-.17.84-2.65-.53.17-.84,2.65.53Zm-1.78-1.5l1.09.22-.86,4.33c-.03.15-.03.26,0,.35.03.09.08.15.15.19.07.04.15.07.24.09.07.01.13.02.19.02.06,0,.11,0,.14,0v.89s-.13.01-.25.02c-.11,0-.24,0-.4-.04-.27-.05-.51-.14-.71-.27-.2-.14-.35-.31-.44-.53-.09-.22-.1-.47-.04-.76l.9-4.51Zm2.79,3.69l-.54,2.71-1.09-.22,1.22-6.16,1.06.21-.46,2.32h.05c.16-.23.37-.4.62-.51.26-.11.57-.12.92-.06.32.06.59.19.8.37.21.18.36.41.44.7.08.28.08.61.01.99l-.58,2.94-1.09-.22.55-2.77c.06-.31.03-.57-.1-.77-.12-.21-.33-.34-.61-.39-.19-.04-.37-.03-.54.02-.17.05-.31.15-.43.29-.12.14-.2.32-.24.54Zm4.89,3.88c-.46-.09-.84-.27-1.14-.53-.3-.26-.5-.59-.61-.98-.11-.39-.12-.83-.02-1.31.1-.48.27-.87.52-1.2.25-.32.56-.55.93-.69.37-.14.77-.16,1.21-.08.29.06.54.16.78.3.24.14.43.33.59.55.16.23.26.5.32.82.05.32.04.67-.04,1.08l-.07.33-3.78-.75.15-.73,2.74.54c.04-.21.03-.4-.02-.58-.06-.18-.15-.34-.29-.46-.14-.12-.31-.21-.52-.25-.22-.05-.43-.03-.62.05-.19.07-.35.19-.48.34-.13.15-.21.33-.25.54l-.13.64c-.05.27-.05.51.01.72.06.21.17.38.33.52.16.13.35.23.59.27.16.03.31.04.44.02.14-.02.26-.07.37-.14.11-.07.2-.17.28-.29l.99.32c-.12.26-.29.47-.51.63-.22.16-.48.27-.78.33-.3.05-.63.04-.99-.03Zm3.21.54l-.39-4.88,1.11.22.17,3.41h.04s1.47-3.07,1.47-3.07l1.1.22.19,3.39h.05s1.44-3.06,1.44-3.06l1.11.22-2.22,4.36-1.13-.22-.25-3.29h-.06s-1.49,2.93-1.49,2.93l-1.14-.23Zm9.75-1.6l-1.01-.09c0-.11-.04-.21-.09-.31-.05-.1-.13-.19-.23-.27-.11-.08-.24-.13-.41-.17-.23-.05-.43-.03-.6.03-.17.07-.27.18-.3.34-.03.13,0,.25.08.36.09.1.24.21.46.31l.75.32c.42.18.71.39.89.64.17.25.23.54.17.87-.06.29-.2.53-.41.72-.21.19-.48.31-.8.38-.32.07-.67.06-1.06-.02-.57-.11-1-.32-1.3-.63-.3-.31-.44-.68-.42-1.12l1.08.11c0,.22.08.4.21.53s.33.23.58.28c.26.05.48.04.65-.04.18-.07.29-.19.32-.35.03-.13,0-.25-.09-.36-.08-.11-.23-.2-.43-.29l-.76-.32c-.42-.18-.72-.4-.89-.66-.17-.26-.22-.56-.15-.9.06-.29.18-.52.38-.69.2-.18.45-.3.76-.36.31-.06.64-.05,1.01.02.54.11.94.31,1.21.6.27.29.4.64.39,1.05Z"/>
              <g class="cls-27">
                <path class="cls-6" d="m632.59,615.31c-1.06.25-1.99,1.17-2.24,2.43-.26,1.29.07,2.39.66,3.4.48.83,1.12,1.56,1.75,2.28.15.17.3.34.44.51.26.3.49.57.73.78.23.21.43.32.62.36.18.04.41,0,.71-.09.3-.1.62-.26.97-.45.2-.1.4-.2.6-.3.85-.42,1.72-.85,2.49-1.43.93-.7,1.65-1.59,1.91-2.89.25-1.26-.25-2.47-1.14-3.11-.86-.62-2.16-.76-3.62.26-.1.07-.23.1-.35.07-.12-.02-.23-.1-.29-.2-.96-1.5-2.21-1.86-3.24-1.62Zm3.74.76c-1.12-1.49-2.61-1.96-3.95-1.64-1.42.34-2.6,1.54-2.91,3.14-.31,1.57.11,2.89.77,4.02.53.91,1.24,1.72,1.87,2.44.14.16.28.32.41.47.25.3.53.61.82.87.29.26.63.49,1.04.57.41.08.81,0,1.18-.13.37-.13.74-.32,1.09-.49.18-.09.37-.18.56-.28.85-.42,1.82-.9,2.66-1.54,1.05-.79,1.94-1.86,2.25-3.43.32-1.59-.31-3.15-1.5-4.01-1.12-.81-2.68-.94-4.28,0Z"/>
              </g>
              <path class="cls-22" d="m648.2,619.78l-1.22,6.16-.93-.18,1.04-5.22h-.04s-1.66.66-1.66.66l.18-.89,1.74-.7.9.18Zm.44,6.49l.13-.67,2.51-1.75c.27-.19.49-.36.67-.51.18-.15.32-.3.43-.44s.17-.31.21-.49c.04-.2.03-.39-.04-.56-.07-.17-.17-.31-.32-.42-.15-.11-.33-.19-.54-.23-.22-.04-.42-.04-.6.02-.18.06-.33.16-.46.31-.12.15-.2.33-.25.55l-.89-.18c.07-.37.23-.68.45-.93s.51-.42.84-.51c.33-.1.69-.11,1.07-.03.39.08.71.22.98.43.27.21.46.46.57.76.11.29.14.61.07.94-.05.23-.13.44-.26.64-.13.2-.32.42-.59.64-.26.23-.62.49-1.07.8l-1.48,1.04v.04s2.76.55,2.76.55l-.16.8-4.05-.8Zm7.31,1.56c-.47-.1-.86-.3-1.14-.62-.29-.32-.47-.73-.56-1.24-.08-.51-.06-1.1.07-1.77.13-.67.33-1.22.61-1.66.27-.44.6-.75.99-.93.39-.18.82-.23,1.29-.13.47.09.85.3,1.14.62.29.32.47.73.56,1.24.09.51.06,1.09-.07,1.76-.13.67-.34,1.23-.61,1.67-.27.44-.6.75-.99.93-.39.18-.82.23-1.29.13Zm.16-.8c.42.08.78-.06,1.1-.42.32-.36.55-.92.7-1.69.1-.51.13-.95.1-1.33-.04-.38-.14-.68-.3-.9-.16-.22-.38-.36-.65-.42-.42-.08-.78.06-1.1.42-.32.36-.55.93-.71,1.69-.1.51-.13.96-.1,1.33.04.37.14.67.3.89.16.22.38.36.66.41Z"/>
              <g class="cls-2">
                <g>
                  <path class="cls-14" d="m674.49,628.3c-.06.32-.38.54-.7.47-.33-.06-.54-.38-.47-.7.06-.33.38-.54.7-.47.33.06.54.38.47.7Z"/>
                  <path class="cls-14" d="m676.84,628.77c-.07.32-.38.53-.7.47-.33-.06-.54-.38-.47-.7.06-.33.38-.54.7-.47.33.07.54.38.47.71Z"/>
                  <path class="cls-14" d="m679.19,629.24c-.07.32-.38.54-.71.47-.32-.07-.54-.38-.47-.71.07-.32.38-.53.71-.47.32.07.54.38.47.7Z"/>
                  <path class="cls-6" d="m682.57,629.91c.69-3.49-1.57-6.88-5.07-7.57-3.49-.69-6.88,1.57-7.57,5.07-.2,1.01-.15,2.01.1,2.94.04.14.02.27-.02.37l-.61,1.24c-.42.85.24,1.83,1.18,1.77l1.38-.09c.11,0,.24.03.36.12.76.59,1.67,1.02,2.68,1.22,3.49.69,6.88-1.58,7.57-5.07Zm-5.24-6.69c3,.6,4.95,3.51,4.36,6.52-.6,3-3.51,4.96-6.52,4.36-.87-.17-1.65-.54-2.31-1.05-.26-.2-.6-.33-.96-.31l-1.38.09c-.25.02-.43-.25-.32-.48l.61-1.24c.16-.33.17-.68.09-1.01-.22-.8-.26-1.66-.09-2.53.6-3,3.51-4.95,6.52-4.36Z"/>
                </g>
              </g>
              <path class="cls-22" d="m687.59,634.08c-.27-.06-.53-.16-.78-.31-.24-.15-.45-.36-.63-.62-.17-.27-.29-.6-.34-1.01-.05-.4-.02-.89.09-1.46.11-.54.25-1,.44-1.4.19-.4.42-.72.68-.96.26-.25.55-.42.86-.51.32-.09.65-.1,1.01-.03.37.07.68.21.93.41.26.2.45.45.57.74.13.29.18.6.17.94l-.92-.18c-.01-.27-.09-.5-.24-.7-.15-.2-.38-.33-.67-.39-.45-.09-.84.04-1.17.38-.33.34-.56.86-.7,1.56h.05c.14-.14.3-.27.48-.36.18-.09.37-.15.58-.18.21-.03.42-.02.63.02.36.07.66.22.92.45.26.23.44.51.55.85s.13.7.05,1.1c-.08.39-.24.73-.48,1.01-.24.28-.54.49-.9.61-.36.12-.75.14-1.18.05Zm.15-.78c.24.05.46.03.67-.05.21-.08.39-.21.54-.38.15-.18.24-.38.29-.63.05-.24.04-.46-.03-.68-.07-.21-.18-.4-.34-.55-.16-.15-.36-.25-.59-.3-.18-.04-.35-.03-.52,0-.16.04-.31.11-.45.2-.14.1-.26.22-.35.36-.1.14-.16.3-.19.47-.05.23-.03.45.03.67.07.22.18.4.35.56.17.16.37.26.6.3Zm5.16,1.84c-.43-.09-.8-.23-1.1-.45-.3-.21-.52-.47-.65-.77-.13-.3-.17-.61-.1-.94.05-.26.15-.49.3-.69.15-.2.34-.35.56-.46.22-.11.45-.16.69-.16v-.04c-.29-.14-.5-.35-.63-.64-.13-.29-.17-.6-.1-.93.06-.32.2-.58.42-.79.22-.21.49-.36.82-.45.33-.08.68-.09,1.05-.01.38.08.7.21.96.42.27.2.46.44.58.73.12.28.15.58.09.89-.07.33-.22.6-.46.82-.24.22-.51.33-.83.35v.04c.22.09.4.22.56.41.16.18.27.4.34.64.07.24.08.49.03.75-.07.33-.22.61-.46.83-.24.22-.54.38-.9.46-.36.08-.75.08-1.18,0Zm.15-.76c.26.05.48.05.69,0,.2-.05.37-.14.5-.27.13-.13.22-.3.26-.51.04-.21.02-.42-.06-.6-.07-.19-.2-.34-.36-.47-.17-.13-.37-.22-.61-.27-.24-.05-.47-.04-.67.01s-.38.16-.52.3c-.14.14-.23.32-.27.54-.04.21-.03.4.04.57.07.17.19.32.36.45.17.12.39.21.64.26Zm.57-2.86c.2.04.39.04.57-.02.17-.05.32-.14.44-.27.12-.13.2-.29.24-.49.04-.19.02-.37-.04-.53-.06-.16-.16-.3-.3-.41-.14-.11-.32-.19-.53-.23-.21-.04-.41-.04-.58,0-.17.05-.32.13-.43.26-.12.13-.19.29-.23.48-.04.2-.03.38.03.54s.16.3.3.42c.14.11.32.19.53.23Z"/>
            </g>
          </g>
          <rect class="cls-1" x="632.57" y="310.4" width="527.85" height="244.51" rx="21.57" ry="21.57" transform="translate(297.59 1227.77) rotate(-78.77)"/>
          <rect class="cls-19" x="632.57" y="310.4" width="527.85" height="244.51" rx="21.57" ry="21.57" transform="translate(297.59 1227.77) rotate(-78.77)"/>
          <image width="2750" height="3437" transform="translate(206.12 582.74) rotate(10.99) scale(.09 .15)" xlink:href="imgs/andrea-tummons-HmPkvapPq70-unsplash-modified.png"/>
          <rect class="cls-19" x="10.81" y="742.73" width="527.85" height="244.51" rx="21.57" ry="21.57" transform="translate(-627.18 966.07) rotate(-78.77)"/>
          <g class="cls-13">
            <path class="cls-4" d="m417.07,642.68l.08.02c1.63.32,2.9.58,3.87.91.99.34,1.74.79,2.25,1.54.51.76.63,1.62.57,2.66-.06,1.02-.32,2.3-.64,3.93l-.02.08c-.32,1.63-.58,2.9-.91,3.87-.34.99-.79,1.74-1.54,2.25-.76.51-1.62.63-2.66.57-1.02-.06-2.3-.32-3.93-.64l-.08-.02c-1.63-.32-2.9-.58-3.87-.91-.99-.34-1.74-.79-2.25-1.54-.51-.76-.63-1.62-.57-2.66.06-1.02.32-2.3.64-3.93l.02-.08c.32-1.63.58-2.9.91-3.87.34-.99.78-1.74,1.54-2.24.76-.51,1.62-.63,2.66-.57,1.02.06,2.3.32,3.93.64Zm-3.99.44c-.93-.06-1.51.06-2,.39-.48.32-.82.82-1.12,1.7-.05.14-.09.29-.14.44l2.63.52,2.64-2.77c-.8-.15-1.46-.24-2.02-.28Zm3.26.52s-.04.07-.07.1l-2.56,2.68,3.33.66,2.62-2.74c-.74-.19-1.65-.37-2.76-.59-.19-.04-.38-.08-.56-.11Zm4.48,1.04l-2.53,2.65,4.43.88c.02-.16.03-.31.04-.46.06-.93-.06-1.51-.39-2-.3-.45-.76-.78-1.55-1.07Zm1.75,4.59l-5.44-1.08s-.01,0-.02,0l-4.57-.91s-.01,0-.02,0l-2.97-.59c-.15.65-.3,1.4-.47,2.29-.33,1.68-.57,2.88-.63,3.82-.06.93.07,1.51.39,2,.32.48.82.82,1.7,1.12.89.31,2.1.55,3.77.88,1.68.33,2.88.57,3.82.63.93.06,1.51-.07,2-.39.48-.32.82-.82,1.12-1.7.31-.89.54-2.1.88-3.77.18-.89.33-1.64.44-2.3Zm-5.98,1.14l.06.06c.38.37.71.69.93.97.23.3.42.67.33,1.12-.09.45-.4.72-.73.91-.31.18-.74.35-1.23.55l-.08.03c-.5.2-.93.37-1.28.45-.36.08-.81.1-1.16-.23-.34-.32-.37-.76-.35-1.14.02-.38.12-.86.23-1.43v-.08c.13-.57.23-1.06.35-1.41.12-.36.32-.75.75-.92.46-.18.86.01,1.16.23.29.2.63.53,1.01.9Zm-1.82-.12s0,0,.01,0c0,0-.01,0-.01,0Zm.03,0s.08.04.16.09c.21.15.49.41.91.83.42.41.69.67.85.88.15.19.13.25.13.25,0,0,0,.06-.22.19-.23.14-.58.27-1.12.49-.55.22-.91.36-1.16.41-.1.02-.15.03-.18.03,0-.03-.02-.11-.01-.28.02-.3.1-.71.22-1.33.12-.62.21-1.03.3-1.31.05-.15.09-.22.12-.25Zm-.66,3.17s0,0,.01,0c0,0-.01,0-.01,0Zm.03.02s0,0,0,0c0,0,0,0,0,0Zm.63-3.2s0,0,0,0c0,0,0,0,0,0Z"/>
          </g>
        </g>
      </g>
    </g>
  </g>
</svg>